<svg xmlns="http://www.w3.org/2000/svg" xmlns:xlink="http://www.w3.org/1999/xlink" width="500" zoomAndPan="magnify" viewBox="0 0 375 374.999991" height="500" preserveAspectRatio="xMidYMid meet" version="1.0"><defs><g/><clipPath id="7f00a6f896"><rect x="0" width="78" y="0" height="87"/></clipPath></defs><rect x="-37.5" width="450" fill="#ffffff" y="-37.499999" height="449.999989" fill-opacity="1"/><rect x="-37.5" width="450" fill="#ffffff" y="-37.499999" height="449.999989" fill-opacity="1"/><g fill="#000000" fill-opacity="1"><g transform="translate(124.742612, 214.499986)"><g><path d="M 6.1875 -57.5625 L 55.96875 -57.5625 L 55.96875 -43.75 L 24.671875 -43.75 L 24.671875 -35.8125 L 51.453125 -35.8125 L 51.453125 -22.59375 L 24.671875 -22.59375 L 24.671875 -13.796875 L 56.546875 -13.796875 L 56.546875 0 L 6.1875 0 Z M 6.1875 -57.5625 "/></g></g></g><g fill="#000000" fill-opacity="1"><g transform="translate(185.145302, 214.499986)"><g><path d="M 31.125 -57.5625 C 51.25 -57.5625 61.3125 -47.96875 61.3125 -28.78125 C 61.3125 -9.59375 51.25 0 31.125 0 L 6.1875 0 L 6.1875 -57.5625 Z M 24.671875 -13.796875 L 30.78125 -13.796875 C 38.53125 -13.796875 42.40625 -17.953125 42.40625 -26.265625 L 42.40625 -31.28125 C 42.40625 -39.59375 38.53125 -43.75 30.78125 -43.75 L 24.671875 -43.75 Z M 24.671875 -13.796875 "/></g></g></g><g transform="matrix(1, 0, 0, 1, 106, 168)"><g clip-path="url(#7f00a6f896)"><g fill="#0ea5a4" fill-opacity="1"><g transform="translate(5.203843, 53.858726)"><g><path d="M 2.015625 19.859375 C 1.296875 19.859375 0.585938 19.726562 -0.109375 19.46875 C -0.804688 19.207031 -1.378906 18.820312 -1.828125 18.3125 C -2.273438 17.8125 -2.5 17.191406 -2.5 16.453125 C -2.5 15.109375 -2.300781 13.285156 -1.90625 10.984375 C -1.507812 8.691406 -0.953125 6.066406 -0.234375 3.109375 C 0.472656 0.160156 1.28125 -2.992188 2.1875 -6.359375 C 3.101562 -9.722656 4.085938 -13.140625 5.140625 -16.609375 C 6.203125 -20.085938 7.269531 -23.492188 8.34375 -26.828125 C 9.425781 -30.160156 10.492188 -33.28125 11.546875 -36.1875 C 12.597656 -39.101562 13.570312 -41.675781 14.46875 -43.90625 C 15.375 -46.132812 16.175781 -47.878906 16.875 -49.140625 C 17.570312 -50.398438 18.097656 -51.03125 18.453125 -51.03125 C 18.804688 -51.03125 19.273438 -50.90625 19.859375 -50.65625 C 20.453125 -50.40625 20.953125 -50.113281 21.359375 -49.78125 C 21.773438 -49.457031 21.898438 -49.160156 21.734375 -48.890625 C 21.597656 -48.671875 21.421875 -48.582031 21.203125 -48.625 C 20.984375 -48.664062 20.742188 -48.707031 20.484375 -48.75 C 20.222656 -48.789062 19.929688 -48.710938 19.609375 -48.515625 C 19.140625 -48.222656 18.550781 -47.410156 17.84375 -46.078125 C 17.132812 -44.753906 16.34375 -43.019531 15.46875 -40.875 C 14.59375 -38.726562 13.679688 -36.300781 12.734375 -33.59375 C 11.796875 -30.882812 10.835938 -28 9.859375 -24.9375 C 8.890625 -21.875 7.945312 -18.742188 7.03125 -15.546875 C 6.113281 -12.347656 5.257812 -9.203125 4.46875 -6.109375 C 3.675781 -3.023438 2.984375 -0.0976562 2.390625 2.671875 C 1.804688 5.453125 1.34375 7.953125 1 10.171875 C 0.664062 12.390625 0.5 14.222656 0.5 15.671875 C 0.5 16.378906 0.550781 17.050781 0.65625 17.6875 C 0.769531 18.332031 1.046875 18.65625 1.484375 18.65625 C 1.890625 18.65625 2.460938 18.238281 3.203125 17.40625 C 3.941406 16.570312 4.796875 15.4375 5.765625 14 C 6.734375 12.570312 7.769531 10.929688 8.875 9.078125 C 9.988281 7.234375 11.125 5.28125 12.28125 3.21875 C 13.445312 1.15625 14.582031 -0.90625 15.6875 -2.96875 C 16.789062 -5.039062 17.828125 -7.007812 18.796875 -8.875 C 19.773438 -10.75 20.632812 -12.410156 21.375 -13.859375 C 21.394531 -13.921875 21.492188 -13.929688 21.671875 -13.890625 C 21.847656 -13.847656 22.007812 -13.769531 22.15625 -13.65625 C 22.3125 -13.550781 22.335938 -13.398438 22.234375 -13.203125 C 21.160156 -11.210938 20.003906 -9.023438 18.765625 -6.640625 C 17.523438 -4.265625 16.25 -1.832031 14.9375 0.65625 C 13.625 3.144531 12.320312 5.53125 11.03125 7.8125 C 9.75 10.09375 8.53125 12.132812 7.375 13.9375 C 6.226562 15.75 5.195312 17.1875 4.28125 18.25 C 3.363281 19.320312 2.609375 19.859375 2.015625 19.859375 Z M 2.015625 19.859375 "/></g></g></g><g fill="#0ea5a4" fill-opacity="1"><g transform="translate(21.570693, 53.858726)"><g><path d="M 9.390625 -21.046875 C 9.285156 -20.828125 9.109375 -20.75 8.859375 -20.8125 C 8.609375 -20.882812 8.378906 -21.019531 8.171875 -21.21875 C 7.972656 -21.425781 7.898438 -21.628906 7.953125 -21.828125 C 8.015625 -21.960938 8.09375 -22.25 8.1875 -22.6875 C 8.28125 -23.125 8.394531 -23.617188 8.53125 -24.171875 C 8.664062 -24.734375 8.796875 -25.253906 8.921875 -25.734375 C 9.046875 -26.210938 9.132812 -26.5625 9.1875 -26.78125 C 9.238281 -27 9.414062 -27.082031 9.71875 -27.03125 C 10.019531 -26.976562 10.347656 -26.832031 10.703125 -26.59375 C 11.054688 -26.363281 11.34375 -26.113281 11.5625 -25.84375 C 11.78125 -25.570312 11.847656 -25.328125 11.765625 -25.109375 C 11.660156 -24.828125 11.4375 -24.40625 11.09375 -23.84375 C 10.75 -23.289062 10.40625 -22.742188 10.0625 -22.203125 C 9.726562 -21.671875 9.503906 -21.285156 9.390625 -21.046875 Z M 3.15625 3 C 2.550781 3 2.007812 2.832031 1.53125 2.5 C 1.0625 2.175781 0.828125 1.546875 0.828125 0.609375 C 0.828125 -0.367188 0.941406 -1.488281 1.171875 -2.75 C 1.398438 -4.007812 1.675781 -5.265625 2 -6.515625 C 2.332031 -7.773438 2.671875 -8.90625 3.015625 -9.90625 C 3.359375 -10.90625 3.640625 -11.609375 3.859375 -12.015625 C 3.960938 -12.210938 3.988281 -12.429688 3.9375 -12.671875 C 3.90625 -12.804688 3.851562 -12.90625 3.78125 -12.96875 C 3.71875 -13.039062 3.726562 -13.160156 3.8125 -13.328125 C 4.28125 -14.234375 4.601562 -14.84375 4.78125 -15.15625 C 4.957031 -15.46875 5.113281 -15.640625 5.25 -15.671875 C 5.46875 -15.722656 5.6875 -15.695312 5.90625 -15.59375 C 6.3125 -15.445312 6.71875 -15.195312 7.125 -14.84375 C 7.539062 -14.488281 7.878906 -14.132812 8.140625 -13.78125 C 8.398438 -13.425781 8.476562 -13.164062 8.375 -13 C 7.769531 -12.070312 7.144531 -10.984375 6.5 -9.734375 C 5.851562 -8.492188 5.242188 -7.207031 4.671875 -5.875 C 4.097656 -4.550781 3.613281 -3.304688 3.21875 -2.140625 C 2.820312 -0.984375 2.578125 -0.0195312 2.484375 0.75 C 2.390625 1.53125 2.492188 1.992188 2.796875 2.140625 C 3.171875 2.296875 3.726562 2.171875 4.46875 1.765625 C 5.207031 1.359375 6.078125 0.738281 7.078125 -0.09375 C 8.078125 -0.9375 9.132812 -1.90625 10.25 -3 C 11.375 -4.09375 12.492188 -5.242188 13.609375 -6.453125 C 14.734375 -7.671875 15.796875 -8.875 16.796875 -10.0625 C 17.796875 -11.257812 18.664062 -12.347656 19.40625 -13.328125 C 19.726562 -13.765625 19.972656 -13.945312 20.140625 -13.875 C 20.304688 -13.8125 20.394531 -13.648438 20.40625 -13.390625 C 20.414062 -13.128906 20.34375 -12.914062 20.1875 -12.75 C 20.125 -12.675781 19.851562 -12.335938 19.375 -11.734375 C 18.894531 -11.128906 18.265625 -10.351562 17.484375 -9.40625 C 16.710938 -8.46875 15.832031 -7.441406 14.84375 -6.328125 C 13.863281 -5.222656 12.835938 -4.125 11.765625 -3.03125 C 10.703125 -1.9375 9.644531 -0.929688 8.59375 -0.015625 C 7.539062 0.898438 6.546875 1.628906 5.609375 2.171875 C 4.679688 2.722656 3.863281 3 3.15625 3 Z M 3.15625 3 "/></g></g></g><g fill="#0ea5a4" fill-opacity="1"><g transform="translate(36.501855, 53.858726)"><g><path d="M 20.84375 -13.78125 C 20.945312 -13.832031 21.097656 -13.789062 21.296875 -13.65625 C 21.503906 -13.519531 21.65625 -13.363281 21.75 -13.1875 C 21.851562 -13.007812 21.78125 -12.878906 21.53125 -12.796875 C 20.769531 -12.472656 19.722656 -12.148438 18.390625 -11.828125 C 17.066406 -11.515625 15.625 -11.234375 14.0625 -10.984375 C 12.507812 -10.742188 10.972656 -10.546875 9.453125 -10.390625 C 7.929688 -10.242188 6.597656 -10.171875 5.453125 -10.171875 L 5.25 -10.171875 C 5.21875 -10.085938 5.1875 -10 5.15625 -9.90625 C 5.132812 -9.8125 5.113281 -9.707031 5.09375 -9.59375 C 5.414062 -8.363281 5.691406 -6.859375 5.921875 -5.078125 C 6.160156 -3.304688 6.328125 -1.375 6.421875 0.71875 C 6.515625 2.8125 6.546875 4.9375 6.515625 7.09375 C 6.492188 9.257812 6.394531 11.328125 6.21875 13.296875 C 6.039062 15.265625 5.789062 17.03125 5.46875 18.59375 C 5.15625 20.164062 4.757812 21.410156 4.28125 22.328125 C 3.800781 23.242188 3.234375 23.703125 2.578125 23.703125 C 2.085938 23.703125 1.546875 23.503906 0.953125 23.109375 C 0.367188 22.710938 -0.140625 22.078125 -0.578125 21.203125 C -1.015625 20.328125 -1.234375 19.179688 -1.234375 17.765625 C -1.234375 15.578125 -1.082031 13.28125 -0.78125 10.875 C -0.476562 8.46875 -0.0820312 6.03125 0.40625 3.5625 C 0.90625 1.101562 1.445312 -1.304688 2.03125 -3.671875 C 2.613281 -6.035156 3.179688 -8.285156 3.734375 -10.421875 C 2.890625 -10.660156 2.144531 -10.972656 1.5 -11.359375 C 0.851562 -11.742188 0.53125 -12.019531 0.53125 -12.1875 C 0.53125 -12.40625 0.632812 -12.601562 0.84375 -12.78125 C 1.050781 -12.957031 1.359375 -13.046875 1.765625 -13.046875 C 2.085938 -13.046875 2.460938 -12.941406 2.890625 -12.734375 C 3.316406 -12.523438 3.707031 -12.191406 4.0625 -11.734375 C 4.46875 -13.210938 4.960938 -14.851562 5.546875 -16.65625 C 6.140625 -18.457031 6.804688 -20.304688 7.546875 -22.203125 C 8.285156 -24.109375 9.078125 -25.9375 9.921875 -27.6875 C 10.773438 -29.4375 11.648438 -31.015625 12.546875 -32.421875 C 13.453125 -33.828125 14.382812 -34.941406 15.34375 -35.765625 C 16.300781 -36.585938 17.242188 -37 18.171875 -37 C 18.859375 -37 19.4375 -36.847656 19.90625 -36.546875 C 20.382812 -36.242188 20.769531 -35.914062 21.0625 -35.5625 C 21.351562 -35.207031 21.550781 -34.929688 21.65625 -34.734375 C 21.925781 -34.296875 21.910156 -34.0625 21.609375 -34.03125 C 21.316406 -34.007812 21.0625 -34.054688 20.84375 -34.171875 C 20.644531 -34.273438 20.398438 -34.378906 20.109375 -34.484375 C 19.828125 -34.597656 19.601562 -34.65625 19.4375 -34.65625 C 18.695312 -34.65625 17.910156 -34.269531 17.078125 -33.5 C 16.242188 -32.738281 15.394531 -31.707031 14.53125 -30.40625 C 13.675781 -29.113281 12.820312 -27.644531 11.96875 -26 C 11.125 -24.363281 10.3125 -22.675781 9.53125 -20.9375 C 8.757812 -19.195312 8.046875 -17.503906 7.390625 -15.859375 C 6.734375 -14.222656 6.15625 -12.75 5.65625 -11.4375 C 5.65625 -11.414062 5.648438 -11.394531 5.640625 -11.375 C 5.628906 -11.363281 5.625 -11.347656 5.625 -11.328125 C 5.757812 -11.296875 5.894531 -11.28125 6.03125 -11.28125 C 6.164062 -11.28125 6.300781 -11.28125 6.4375 -11.28125 C 8.738281 -11.28125 10.882812 -11.453125 12.875 -11.796875 C 14.875 -12.140625 16.582031 -12.507812 18 -12.90625 C 19.425781 -13.300781 20.375 -13.59375 20.84375 -13.78125 Z M 2.25 21.9375 C 2.632812 21.9375 3.03125 21.390625 3.4375 20.296875 C 3.851562 19.203125 4.21875 17.695312 4.53125 15.78125 C 4.84375 13.875 5.070312 11.679688 5.21875 9.203125 C 5.375 6.734375 5.394531 4.085938 5.28125 1.265625 C 5.175781 -1.546875 4.90625 -4.390625 4.46875 -7.265625 C 4.0625 -5.597656 3.664062 -3.703125 3.28125 -1.578125 C 2.894531 0.535156 2.535156 2.691406 2.203125 4.890625 C 1.878906 7.097656 1.625 9.191406 1.4375 11.171875 C 1.25 13.160156 1.15625 14.878906 1.15625 16.328125 C 1.15625 18.210938 1.226562 19.617188 1.375 20.546875 C 1.519531 21.472656 1.8125 21.9375 2.25 21.9375 Z M 2.25 21.9375 "/></g></g></g><g fill="#0ea5a4" fill-opacity="1"><g transform="translate(50.653651, 53.858726)"><g><path d="M 19.53125 -27.078125 C 21 -27.078125 22.171875 -26.976562 23.046875 -26.78125 C 23.921875 -26.59375 24.570312 -26.351562 25 -26.0625 C 25.425781 -25.78125 25.707031 -25.507812 25.84375 -25.25 C 25.976562 -24.988281 26.046875 -24.789062 26.046875 -24.65625 C 26.046875 -24.269531 25.941406 -23.945312 25.734375 -23.6875 C 25.535156 -23.425781 25.285156 -23.28125 24.984375 -23.25 C 24.847656 -23.25 24.722656 -23.363281 24.609375 -23.59375 C 24.503906 -23.832031 24.5625 -24.019531 24.78125 -24.15625 C 24.9375 -24.289062 25.015625 -24.460938 25.015625 -24.671875 C 25.015625 -24.878906 24.816406 -25.09375 24.421875 -25.3125 C 24.023438 -25.53125 23.347656 -25.71875 22.390625 -25.875 C 21.429688 -26.039062 20.09375 -26.125 18.375 -26.125 C 17.800781 -26.125 16.796875 -26.078125 15.359375 -25.984375 C 13.921875 -25.890625 12.207031 -25.734375 10.21875 -25.515625 C 9.226562 -22.890625 8.269531 -20.050781 7.34375 -17 C 6.414062 -13.945312 5.539062 -10.828125 4.71875 -7.640625 C 3.894531 -4.460938 3.160156 -1.328125 2.515625 1.765625 C 1.878906 4.859375 1.363281 7.773438 0.96875 10.515625 C 0.570312 13.265625 0.332031 15.722656 0.25 17.890625 C 0.195312 19.359375 0.304688 20.535156 0.578125 21.421875 C 0.847656 22.316406 1.15625 22.992188 1.5 23.453125 C 1.84375 23.921875 2.070312 24.257812 2.1875 24.46875 C 2.3125 24.675781 2.210938 24.832031 1.890625 24.9375 C 1.617188 25.019531 1.234375 24.953125 0.734375 24.734375 C 0.242188 24.515625 -0.25 24.117188 -0.75 23.546875 C -1.257812 22.972656 -1.6875 22.191406 -2.03125 21.203125 C -2.375 20.222656 -2.53125 19.019531 -2.5 17.59375 C -2.445312 15.320312 -2.210938 12.8125 -1.796875 10.0625 C -1.390625 7.320312 -0.84375 4.445312 -0.15625 1.4375 C 0.519531 -1.570312 1.28125 -4.613281 2.125 -7.6875 C 2.976562 -10.769531 3.863281 -13.800781 4.78125 -16.78125 C 5.695312 -19.757812 6.601562 -22.570312 7.5 -25.21875 C 5.425781 -24.976562 3.226562 -24.695312 0.90625 -24.375 C -1.414062 -24.0625 -3.742188 -23.710938 -6.078125 -23.328125 C -8.421875 -22.953125 -10.6875 -22.53125 -12.875 -22.0625 C -15.0625 -21.601562 -17.046875 -21.113281 -18.828125 -20.59375 C -18.992188 -20.539062 -19.171875 -20.613281 -19.359375 -20.8125 C -19.546875 -21.019531 -19.691406 -21.28125 -19.796875 -21.59375 C -19.910156 -21.90625 -19.941406 -22.191406 -19.890625 -22.453125 C -19.835938 -22.710938 -19.660156 -22.882812 -19.359375 -22.96875 C -18.234375 -23.21875 -16.660156 -23.488281 -14.640625 -23.78125 C -12.617188 -24.082031 -10.335938 -24.382812 -7.796875 -24.6875 C -5.253906 -24.988281 -2.628906 -25.28125 0.078125 -25.5625 C 2.785156 -25.851562 5.382812 -26.109375 7.875 -26.328125 C 9.050781 -29.691406 10.128906 -32.648438 11.109375 -35.203125 C 12.097656 -37.765625 12.863281 -39.632812 13.40625 -40.8125 C 13.550781 -41.113281 13.890625 -41.25 14.421875 -41.21875 C 14.953125 -41.195312 15.570312 -41.113281 16.28125 -40.96875 C 16.988281 -40.832031 17.625 -40.632812 18.1875 -40.375 C 18.75 -40.113281 18.988281 -39.835938 18.90625 -39.546875 C 18.882812 -39.378906 18.691406 -39.28125 18.328125 -39.25 C 17.972656 -39.226562 17.59375 -39.066406 17.1875 -38.765625 C 16.226562 -38.046875 15.179688 -36.597656 14.046875 -34.421875 C 12.910156 -32.253906 11.753906 -29.625 10.578125 -26.53125 C 12.546875 -26.695312 14.3125 -26.828125 15.875 -26.921875 C 17.4375 -27.023438 18.65625 -27.078125 19.53125 -27.078125 Z M 19.53125 -27.078125 "/></g></g></g></g></g></svg>
